<svg xmlns="http://www.w3.org/2000/svg" enable-background="new 0 0 100 100" viewBox="0 0 100 100" id="bumble">
  <path id="Layer_2" fill="#000000" d="M96.801,47.392L75.684,10.905c-0.905-1.556-2.571-2.613-4.51-2.613H28.849c-1.916,0-3.609,1.062-4.51,2.594
			c-2.233,3.855-7.573,13.08-9.738,16.819L3.199,47.397c-0.932,1.611-0.932,3.596,0,5.207l21.181,36.492
			c0.905,1.574,2.571,2.613,4.51,2.613h42.257c1.939,0,3.609-1.039,4.51-2.594l21.14-36.51
			C97.734,50.992,97.734,49.003,96.801,47.392z M38.403,26.885h23.236c6.888,0.211,6.898,10.217,0,10.432
			c-5.616,0-17.713,0-23.236,0C31.516,37.106,31.505,27.098,38.403,26.885z M56.501,73.245H43.541c-2.876,0-5.207-2.331-5.207-5.207
			c0-2.875,2.331-5.207,5.207-5.207c3.057,0,9.971,0,12.961,0C63.38,63.042,63.385,73.033,56.501,73.245z M71.083,55.28H28.936
			c-6.882-0.208-6.903-10.216,0-10.431c0,0,42.146,0,42.146,0C77.965,45.057,77.986,55.065,71.083,55.28z"></path>
</svg>
